<svg width="588" height="825" viewBox="0 0 588 825" fill="none" xmlns="http://www.w3.org/2000/svg">
<path d="M316.575 749.917C174.242 830.033 35.7168 855.885 7.16219 807.664C-16.3723 767.915 42.1528 690.256 143.156 619.321C164.684 604.199 152.188 387.097 177.202 373.021C229.141 343.781 319.879 266.206 365.65 252.38C376.376 249.139 383.467 504.202 393.507 501.881C457.996 486.937 506.889 491.057 522.582 517.557C551.136 565.767 458.908 669.8 316.575 749.917Z" fill="black" stroke="white" stroke-width="2" stroke-miterlimit="10"/>
<path d="M187.2 744.542L143.167 619.321C164.695 604.199 152.198 387.097 177.213 373.021C229.152 343.781 319.889 266.206 365.66 252.38C376.387 249.139 383.478 504.202 393.518 501.881L415.765 596.356C387.328 634.296 264.539 714.005 187.2 744.542Z" stroke="white" stroke-width="2" stroke-miterlimit="10"/>
<path d="M480.565 189.686C480.565 202.706 473.925 214.22 463.756 221.164V221.175L463.649 221.248L460.41 223.224L84.3304 456.243L49.179 387.797L416.055 160.028C422.866 154.538 431.608 151.244 441.134 151.244C462.909 151.244 480.565 168.457 480.565 189.686Z" fill="black" stroke="white" stroke-width="2" stroke-miterlimit="10"/>
<path d="M66.4918 460.416C88.2692 460.416 105.923 443.205 105.923 421.973C105.923 400.742 88.2692 383.531 66.4918 383.531C44.7144 383.531 27.0604 400.742 27.0604 421.973C27.0604 443.205 44.7144 460.416 66.4918 460.416Z" fill="black" stroke="white" stroke-width="2" stroke-miterlimit="10"/>
<path d="M338.908 207.925V45.4119H420.624V581.495C420.624 598.824 402.335 612.879 379.766 612.879C357.197 612.879 338.908 598.824 338.908 581.495V289.328" fill="black"/>
<path d="M338.908 207.925V45.4119H420.624V581.495C420.624 598.824 402.335 612.879 379.766 612.879C357.197 612.879 338.908 598.824 338.908 581.495V289.328" stroke="white" stroke-width="2" stroke-miterlimit="10"/>
<path d="M379.766 76.8057C402.331 76.8057 420.624 62.7501 420.624 45.4116C420.624 28.0732 402.331 14.0176 379.766 14.0176C357.201 14.0176 338.908 28.0732 338.908 45.4116C338.908 62.7501 357.201 76.8057 379.766 76.8057Z" fill="black" stroke="white" stroke-width="2" stroke-miterlimit="10"/>
<path d="M365.65 281.348L169.479 404.352L134.328 335.906L203.386 292.465" fill="black"/>
<path d="M365.65 281.348L169.479 404.352L134.328 335.906L203.386 292.465" stroke="white" stroke-width="2" stroke-miterlimit="10"/>
<path d="M205.306 190.052V718.481C205.306 735.809 187.017 749.865 164.448 749.865C141.879 749.865 123.59 735.809 123.59 718.481V190.052H205.306V190.052Z" fill="black" stroke="white" stroke-width="2" stroke-miterlimit="10"/>
<path d="M164.448 221.447C187.014 221.447 205.306 207.391 205.306 190.053C205.306 172.714 187.014 158.658 164.448 158.658C141.883 158.658 123.59 172.714 123.59 190.053C123.59 207.391 141.883 221.447 164.448 221.447Z" fill="black" stroke="white" stroke-width="2" stroke-miterlimit="10"/>
<path d="M480.372 -2.83993C481.852 11.7695 474.934 24.9149 463.767 32.549V32.5595L463.66 32.6327C461.504 33.9503 459.444 35.4144 457.503 37.0249L452.611 41.0825C348.616 127.202 233.346 199.475 109.817 255.978L84.3411 267.628L49.1897 199.182L65.3227 191.841C191.952 134.219 309.946 60.0632 416.055 -28.5868C423.51 -34.6 433.282 -37.9779 443.858 -37.2772C462.888 -36.0327 478.495 -21.3396 480.372 -2.83993Z" fill="black" stroke="white" stroke-width="2" stroke-miterlimit="10"/>
<path d="M66.4918 271.8C88.2692 271.8 105.923 254.589 105.923 233.358C105.923 212.127 88.2692 194.915 66.4918 194.915C44.7144 194.915 27.0604 212.127 27.0604 233.358C27.0604 254.589 44.7144 271.8 66.4918 271.8Z" fill="black" stroke="white" stroke-width="2" stroke-miterlimit="10"/>
<path d="M143.167 419.903L84.3304 456.243L49.179 387.798L123.601 341.449V332.801" fill="black"/>
<path d="M143.167 419.903L84.3304 456.243L49.179 387.798L123.601 341.449V332.801" stroke="white" stroke-width="2" stroke-miterlimit="10"/>
<path d="M66.4918 460.416C88.2692 460.416 105.923 443.205 105.923 421.973C105.923 400.742 88.2692 383.531 66.4918 383.531C44.7144 383.531 27.0604 400.742 27.0604 421.973C27.0604 443.205 44.7144 460.416 66.4918 460.416Z" fill="black" stroke="white" stroke-width="2" stroke-miterlimit="10"/>
<path d="M593.089 613.214C629.161 613.214 658.404 584.705 658.404 549.537C658.404 514.369 629.161 485.86 593.089 485.86C557.016 485.86 527.773 514.369 527.773 549.537C527.773 584.705 557.016 613.214 593.089 613.214Z" fill="#FAEE00" stroke="white" stroke-width="2" stroke-miterlimit="10"/>
<path d="M525.918 339.409C525.918 360.126 515.352 378.448 499.165 389.502V389.523L498.994 389.638L493.834 392.786L423.252 292.214C434.097 283.481 447.999 278.232 463.167 278.232C497.825 278.232 525.918 305.631 525.918 339.409Z" fill="#FAEE00" stroke="white" stroke-width="2" stroke-miterlimit="10"/>
<path d="M453.309 407.469C487.965 407.469 516.06 380.078 516.06 346.291C516.06 312.503 487.965 285.113 453.309 285.113C418.652 285.113 390.557 312.503 390.557 346.291C390.557 380.078 418.652 407.469 453.309 407.469Z" fill="#FAEE00" stroke="white" stroke-width="2" stroke-miterlimit="10"/>
<path d="M360.308 496.16C360.308 516.888 349.742 535.209 333.555 546.253V546.274L333.394 546.389L329.157 548.972L328.235 549.536L268.208 464.003C269.71 456.829 271.598 449.937 273.829 443.38L275.449 438.894C282.324 436.363 289.779 434.983 297.556 434.983C332.214 434.983 360.308 462.382 360.308 496.16Z" fill="#FAEE00" stroke="white" stroke-width="2" stroke-miterlimit="10"/>
<path d="M350.45 503.052C350.45 521.343 342.212 537.761 329.157 548.972C318.098 558.468 303.585 564.23 287.699 564.23C282.571 564.23 277.583 563.634 272.81 562.494C267.232 545.061 264.1 525.358 264.1 504.516C264.1 490.367 265.537 476.741 268.208 464.003C269.71 456.829 271.598 449.937 273.829 443.38C278.291 442.397 282.936 441.875 287.699 441.875C322.357 441.875 350.45 469.263 350.45 503.052Z" fill="#FAEE00" stroke="white" stroke-width="2" stroke-miterlimit="10"/>
<path d="M285.103 587.394C272.51 564.69 264.872 534.959 264.872 502.414C264.872 467.109 273.861 435.119 288.417 411.809" stroke="white" stroke-width="2" stroke-miterlimit="10"/>
<path d="M285.103 587.394C272.51 564.69 264.872 534.959 264.872 502.414C264.872 467.109 273.861 435.119 288.417 411.809" stroke="white" stroke-width="4" stroke-miterlimit="10" stroke-linecap="round" stroke-linejoin="round"/>
</svg>
