<svg width="16" height="16" viewBox="0 0 16 16" fill="none" xmlns="http://www.w3.org/2000/svg">
<g clip-path="url(#clip0_226_592)">
<path d="M13.5447 2.99457C12.5247 2.53457 11.4313 2.19457 10.288 2.00123C10.2778 1.99928 10.2673 2.00054 10.2579 2.00484C10.2484 2.00914 10.2406 2.01627 10.2353 2.02523C10.0953 2.27123 9.93935 2.5919 9.83002 2.84523C8.61741 2.66406 7.38462 2.66406 6.17202 2.84523C6.05024 2.56447 5.91291 2.29072 5.76068 2.02523C5.75552 2.01616 5.74772 2.00887 5.73831 2.00434C5.7289 1.99981 5.71833 1.99827 5.70802 1.9999C4.56535 2.19323 3.47202 2.53323 2.45135 2.9939C2.44257 2.99758 2.43512 3.00387 2.43002 3.0119C0.355349 6.0619 -0.213318 9.03657 0.0660152 11.9739C0.0667925 11.9811 0.0690256 11.9881 0.0725785 11.9944C0.0761315 12.0007 0.0809299 12.0062 0.0866819 12.0106C1.29761 12.8922 2.64824 13.5638 4.08202 13.9972C4.09201 14.0003 4.1027 14.0003 4.11269 13.9972C4.12268 13.9941 4.13151 13.9881 4.13802 13.9799C4.44602 13.5666 4.72068 13.1299 4.95535 12.6712C4.96935 12.6446 4.95602 12.6126 4.92802 12.6019C4.49735 12.4397 4.08007 12.244 3.68002 12.0166C3.67283 12.0125 3.66677 12.0066 3.66239 11.9996C3.658 11.9926 3.65543 11.9846 3.6549 11.9763C3.65438 11.9681 3.65591 11.9598 3.65936 11.9523C3.66281 11.9448 3.66808 11.9382 3.67468 11.9332C3.75868 11.8712 3.84268 11.8066 3.92268 11.7419C3.92988 11.7361 3.93856 11.7324 3.94774 11.7312C3.95692 11.73 3.96625 11.7314 3.97468 11.7352C6.59268 12.9112 9.42802 12.9112 12.0153 11.7352C12.0238 11.7312 12.0332 11.7296 12.0425 11.7307C12.0519 11.7317 12.0607 11.7354 12.068 11.7412C12.148 11.8066 12.2313 11.8712 12.316 11.9332C12.3227 11.9381 12.328 11.9446 12.3316 11.952C12.3352 11.9595 12.3368 11.9677 12.3364 11.976C12.336 11.9842 12.3336 11.9923 12.3293 11.9993C12.3251 12.0064 12.3191 12.0123 12.312 12.0166C11.9133 12.2459 11.4987 12.4399 11.0633 12.6012C11.0567 12.6037 11.0506 12.6075 11.0455 12.6125C11.0404 12.6174 11.0364 12.6234 11.0338 12.63C11.0312 12.6367 11.0301 12.6438 11.0305 12.6509C11.0309 12.658 11.0327 12.6649 11.036 12.6712C11.276 13.1292 11.5507 13.5652 11.8527 13.9792C11.859 13.9877 11.8677 13.9941 11.8777 13.9974C11.8878 14.0008 11.8986 14.0009 11.9087 13.9979C13.3449 13.5657 14.6978 12.8938 15.91 12.0106C15.9159 12.0064 15.9209 12.0011 15.9246 11.9949C15.9283 11.9887 15.9306 11.9817 15.9313 11.9746C16.2647 8.57857 15.3727 5.6279 13.5653 3.01323C13.5609 3.00474 13.5536 2.99811 13.5447 2.99457ZM5.34668 10.1852C4.55868 10.1852 3.90868 9.47257 3.90868 8.59857C3.90868 7.7239 4.54602 7.0119 5.34668 7.0119C6.15335 7.0119 6.79735 7.7299 6.78468 8.59857C6.78468 9.47323 6.14735 10.1852 5.34668 10.1852ZM10.6633 10.1852C9.87468 10.1852 9.22535 9.47257 9.22535 8.59857C9.22535 7.7239 9.86202 7.0119 10.6633 7.0119C11.47 7.0119 12.114 7.7299 12.1013 8.59857C12.1013 9.47323 11.4707 10.1852 10.6633 10.1852Z" fill="white"/>
</g>
<defs>
<clipPath id="clip0_226_592">
<rect width="16" height="16" fill="white"/>
</clipPath>
</defs>
</svg>
