<svg width="103" height="42" viewBox="0 0 103 42" fill="none" xmlns="http://www.w3.org/2000/svg">
<g clip-path="url(#clip0_254_5722)">
<path fill-rule="evenodd" clip-rule="evenodd" d="M23.2608 -0.129357C23.6715 0.158605 23.9149 0.622011 23.9149 1.11562V24.8498C23.9149 25.5077 23.4849 26.0923 22.8462 26.3024L1.65325 33.2745C1.17411 33.4321 0.646532 33.3549 0.235872 33.0669C-0.174788 32.7789 -0.418274 32.3155 -0.418274 31.8219V8.08773C-0.418274 7.4298 0.0118018 6.84525 0.650448 6.63514L21.8434 -0.336967C22.3226 -0.494595 22.8501 -0.417319 23.2608 -0.129357ZM2.72197 9.18873V29.6878L20.7747 23.7488V3.2497L2.72197 9.18873Z" fill="black"/>
<path fill-rule="evenodd" clip-rule="evenodd" d="M30.041 4.40191C30.4517 4.68987 30.6951 5.15327 30.6951 5.64687V29.3811C30.6951 30.039 30.265 30.6236 29.6264 30.8337L8.43109 37.8058C7.95195 37.9634 7.42439 37.8861 7.01374 37.5981C6.6031 37.3102 6.35962 36.8468 6.35962 36.3532V12.619C6.35962 11.961 6.78972 11.3765 7.42839 11.1664L28.6237 4.19427C29.1028 4.03666 29.6304 4.11394 30.041 4.40191ZM9.49986 13.72V34.2192L27.5549 28.28V7.78088L9.49986 13.72Z" fill="black"/>
<path fill-rule="evenodd" clip-rule="evenodd" d="M36.8188 8.93311C37.2295 9.22107 37.473 9.68449 37.473 10.1781V33.9123C37.473 34.5703 37.0429 35.1548 36.4043 35.3649L15.209 42.337C14.7298 42.4946 14.2023 42.4173 13.7916 42.1294C13.381 41.8414 13.1375 41.378 13.1375 40.8844V17.1525C13.1375 16.4946 13.5675 15.91 14.2061 15.6999L35.4014 8.72556C35.8806 8.5679 36.4082 8.64516 36.8188 8.93311ZM16.2778 18.2534V38.7504L34.3328 32.8113V12.3123L16.2778 18.2534Z" fill="black"/>
<path d="M64.8095 31.4307V10.584H61.6024L55.5444 23.5546L49.3677 10.584H46.1605V31.4307H49.3677V17.4938L54.3566 27.6537H56.7323L61.6024 17.4938V31.4307H64.8095Z" fill="black"/>
<path d="M83.8291 31.4307V28.5906H73.5246V22.3249H82.3146V19.5141H73.5246V13.4241H83.8291V10.584H70.3174V31.4307H83.8291Z" fill="black"/>
<path d="M102.999 16.9083C102.999 13.2777 100.356 10.584 96.2283 10.584H88.2104V31.4307H91.4175V23.2326H96.2283C100.356 23.2326 102.999 20.5389 102.999 16.9083ZM99.7918 16.9083C99.7918 19.1042 98.2773 20.3632 96.0501 20.3632H91.4175V13.4241H96.0501C98.2773 13.4241 99.7918 14.7123 99.7918 16.9083Z" fill="black"/>
</g>
<defs>
<clipPath id="clip0_254_5722">
<rect width="103" height="42" fill="white"/>
</clipPath>
</defs>
</svg>
