<svg width="16" height="16" viewBox="0 0 16 16" fill="none" xmlns="http://www.w3.org/2000/svg">
<path d="M2.91465 4.84275C2.92281 4.76159 2.91187 4.67965 2.8827 4.60348C2.85353 4.52731 2.80694 4.45902 2.74665 4.40408L1.50131 2.89275V2.66675H5.36665L8.35465 9.27008L10.9813 2.66675H14.6666V2.89275L13.602 3.92008C13.5569 3.95491 13.5221 4.00134 13.5013 4.05442C13.4805 4.10749 13.4745 4.16521 13.484 4.22141V11.7774C13.4745 11.8336 13.4805 11.8913 13.5013 11.9444C13.5221 11.9975 13.5569 12.0439 13.602 12.0787L14.642 13.1067V13.3334H9.41265V13.1074L10.49 12.0541C10.596 11.9474 10.596 11.9161 10.596 11.7534V5.64541L7.60131 13.3081H7.19731L3.71065 5.64541V10.7814C3.68198 10.9967 3.75331 11.2147 3.90398 11.3707L5.30465 13.0827V13.3081H1.33331V13.0827L2.73331 11.3707C2.80739 11.2935 2.86236 11.1999 2.89385 11.0976C2.92533 10.9953 2.93246 10.887 2.91465 10.7814V4.84275Z" fill="white"/>
</svg>
