<svg width="16" height="16" viewBox="0 0 16 16" fill="none" xmlns="http://www.w3.org/2000/svg">
<path d="M15.762 3.29122C15.2053 3.53789 14.6073 3.70456 13.9786 3.77989C14.6273 3.39175 15.1126 2.78087 15.344 2.06122C14.7345 2.42321 14.0675 2.67802 13.372 2.81456C12.9042 2.31513 12.2847 1.98411 11.6095 1.87287C10.9344 1.76164 10.2414 1.87642 9.63813 2.19939C9.03489 2.52236 8.55515 3.03546 8.2734 3.65902C7.99166 4.28259 7.92366 4.98172 8.07997 5.64789C6.84509 5.58589 5.63705 5.26492 4.53425 4.70583C3.43145 4.14673 2.45853 3.362 1.67863 2.40256C1.41197 2.86256 1.25863 3.39589 1.25863 3.96389C1.25834 4.47522 1.38426 4.97872 1.62522 5.42971C1.86618 5.8807 2.21474 6.26525 2.63997 6.54922C2.14682 6.53353 1.66455 6.40028 1.2333 6.16055V6.20055C1.23325 6.91772 1.48132 7.61281 1.93542 8.16789C2.38952 8.72296 3.02168 9.10384 3.72463 9.24589C3.26716 9.3697 2.78753 9.38794 2.32197 9.29922C2.5203 9.9163 2.90663 10.4559 3.42688 10.8425C3.94713 11.2291 4.57525 11.4433 5.2233 11.4552C4.12319 12.3188 2.76456 12.7873 1.36597 12.7852C1.11822 12.7853 0.870685 12.7708 0.624634 12.7419C2.04428 13.6547 3.69686 14.1391 5.38463 14.1372C11.098 14.1372 14.2213 9.40522 14.2213 5.30122C14.2213 5.16789 14.218 5.03322 14.212 4.89989C14.8195 4.46054 15.3439 3.91649 15.7606 3.29322L15.762 3.29122Z" fill="white"/>
</svg>
